<?xml version="1.0" encoding="UTF-8" standalone="no"?><svg width="56" height="40" viewBox="0 0 56 40" fill="none" xmlns="http://www.w3.org/2000/svg">
<path d="M55.7143 40H32.7789V24.3728C32.7789 21.0753 33.2568 17.9689 34.2124 15.0538C35.2158 12.0908 36.6732 9.51016 38.5845 7.31183C40.4957 5.1135 42.8609 3.34528 45.6801 2.00717C48.547 0.669056 51.8917 0 55.7143 0V8.3871C46.0145 8.3871 41.1647 13.7156 41.1647 24.3728V26.595H55.7143V40ZM22.792 40H0V24.3728C0 21.0753 0.453928 17.9689 1.36179 15.0538C2.31742 12.0908 3.75088 9.51016 5.66216 7.31183C7.57344 5.1135 9.93864 3.34528 12.7578 2.00717C15.6247 0.669056 18.9694 0 22.792 0V8.3871C13.1878 8.3871 8.38573 13.7156 8.38573 24.3728V26.595H22.792V40Z" fill="#61616B"/>
</svg>
