<?xml version="1.0" encoding="UTF-8" standalone="no"?><svg width="339" height="395" viewBox="0 0 339 395" fill="none" xmlns="http://www.w3.org/2000/svg">
<path d="M294.684 163.941C294.281 163.941 293.894 163.781 293.609 163.496C293.324 163.211 293.164 162.824 293.164 162.421V153.401C293.164 152.998 293.324 152.611 293.609 152.326C293.894 152.041 294.281 151.881 294.684 151.881C295.087 151.881 295.474 152.041 295.759 152.326C296.044 152.611 296.204 152.998 296.204 153.401V162.421C296.199 162.822 296.037 163.206 295.753 163.49C295.469 163.774 295.086 163.936 294.684 163.941Z" fill="#130135"/>
<path d="M292.658 143.57C292.324 143.567 292.001 143.457 291.734 143.256C291.468 143.056 291.273 142.775 291.178 142.455C287.428 128.814 279.016 116.754 268.881 111.018L193.358 67.4384C193.185 67.3346 193.034 67.1978 192.914 67.0357C192.794 66.8735 192.707 66.6894 192.658 66.4936C192.609 66.2979 192.599 66.0943 192.629 65.8948C192.658 65.6952 192.727 65.5035 192.831 65.3304C192.935 65.1574 193.072 65.0066 193.234 64.8864C193.396 64.7663 193.58 64.6793 193.776 64.6303C193.971 64.5814 194.175 64.5715 194.374 64.6012C194.574 64.6309 194.766 64.6996 194.939 64.8034L270.463 108.383C281.063 114.463 290.124 127.253 294.076 141.645C294.183 142.034 294.132 142.45 293.935 142.803C293.738 143.155 293.41 143.417 293.022 143.53L292.658 143.57Z" fill="#130135"/>
<path d="M259.922 219.054L59.2555 104.37C48.2694 98.0455 39.3915 81.0394 39.3915 66.4049V21.8123C39.3915 14.3937 32.135 14.2315 35.8241 11.556C36.1281 11.333 50.7423 2.94145 51.0666 2.7793C54.5327 0.752361 59.0528 0.995592 64.0188 3.85357L264.584 118.518C275.57 124.862 284.469 141.848 284.469 156.482V201.075C284.469 209.061 281.793 214.696 277.597 217.128L262.537 225.925C259.193 227.709 264.686 221.81 259.922 219.054Z" fill="#E5FE58"/>
<path d="M261.706 227.79C261.435 227.791 261.166 227.731 260.921 227.616C260.676 227.5 260.459 227.331 260.287 227.121C260.058 226.727 259.926 226.285 259.902 225.831C259.877 225.376 259.96 224.922 260.145 224.506C260.591 222.682 260.794 221.304 259.152 220.452L58.5865 105.768C47.1951 99.2009 37.9522 81.5867 37.9522 66.486V21.8934C37.9618 20.7429 37.7074 19.6056 37.2084 18.569C36.7094 17.5323 35.9792 16.624 35.074 15.9139C34.5782 15.5677 34.1662 15.115 33.8681 14.5889C33.57 14.0628 33.3933 13.4767 33.3511 12.8735C33.4309 12.365 33.621 11.8802 33.9082 11.453C34.1953 11.0258 34.5725 10.6666 35.0132 10.4006C35.4186 10.1169 50.2355 1.60372 50.3976 1.52264C54.4515 -0.788068 59.6202 -0.504279 64.8497 2.61721L265.517 117.281C276.888 123.848 286.151 141.483 286.151 156.563V201.156C286.151 209.385 283.354 215.73 278.509 218.527L276.766 219.56L263.409 227.364C262.886 227.648 262.3 227.794 261.706 227.79ZM36.5334 12.9343L37.182 13.583C38.378 14.5678 39.3403 15.806 39.9993 17.2082C40.6583 18.6103 40.9976 20.1414 40.9926 21.6907V66.2834C40.9926 80.4719 49.5666 96.8496 60.0864 102.93L260.753 217.615C261.808 218.193 262.647 219.099 263.14 220.197C263.634 221.294 263.757 222.522 263.49 223.695L275.226 216.824L276.989 215.79C280.881 213.561 283.07 208.169 283.07 201.054V156.462C283.07 142.273 274.496 125.896 263.956 119.815L63.2889 5.15088C59.0121 2.67801 54.9785 2.2929 51.857 4.0766C50.9449 4.58334 37.3239 12.4073 36.6955 12.8127L36.5334 12.9343Z" fill="#130135"/>
<path d="M269.936 211.615L284.124 203.507L269.936 211.615Z" fill="white"/>
<path d="M269.936 213.135C269.669 213.14 269.405 213.073 269.174 212.941C268.942 212.809 268.75 212.617 268.618 212.385C268.433 212.039 268.389 211.635 268.494 211.257C268.6 210.879 268.848 210.557 269.186 210.358L283.374 202.25C283.549 202.15 283.741 202.086 283.94 202.06C284.139 202.035 284.342 202.049 284.536 202.101C284.729 202.154 284.911 202.244 285.07 202.367C285.229 202.49 285.362 202.643 285.462 202.818C285.562 202.992 285.626 203.184 285.652 203.383C285.677 203.583 285.663 203.785 285.611 203.979C285.558 204.173 285.467 204.354 285.345 204.513C285.222 204.672 285.069 204.805 284.894 204.905L270.706 213.013C270.464 213.121 270.199 213.163 269.936 213.135Z" fill="#130135"/>
<path d="M268.577 153.097L282.766 144.989L268.577 153.097Z" fill="white"/>
<path d="M268.577 154.617C268.243 154.615 267.919 154.504 267.655 154.299C267.391 154.094 267.201 153.809 267.116 153.486C267.031 153.163 267.054 152.82 267.182 152.512C267.311 152.204 267.538 151.946 267.827 151.779L282.016 143.672C282.362 143.487 282.766 143.442 283.143 143.548C283.521 143.654 283.843 143.901 284.043 144.239C284.223 144.586 284.265 144.989 284.159 145.365C284.054 145.741 283.809 146.063 283.475 146.266L269.287 154.374C269.077 154.518 268.831 154.602 268.577 154.617Z" fill="#130135"/>
<path d="M254.652 130.03L269.125 121.76L254.652 130.03Z" fill="white"/>
<path d="M254.652 131.551C254.386 131.556 254.122 131.489 253.89 131.357C253.658 131.225 253.466 131.033 253.335 130.801C253.15 130.455 253.105 130.051 253.211 129.673C253.317 129.295 253.565 128.973 253.902 128.774L268.375 120.504C268.72 120.319 269.125 120.274 269.502 120.38C269.88 120.486 270.202 120.734 270.402 121.071C270.592 121.416 270.639 121.822 270.533 122.201C270.427 122.58 270.176 122.903 269.834 123.098L255.362 131.368C255.144 131.487 254.9 131.549 254.652 131.551Z" fill="#130135"/>
<path d="M56.1543 16.1571L70.6267 7.88721L56.1543 16.1571Z" fill="white"/>
<path d="M56.154 17.7175C55.8864 17.7146 55.6241 17.642 55.3931 17.507C55.1621 17.3719 54.9703 17.179 54.8365 16.9473C54.646 16.6026 54.5988 16.1967 54.705 15.8175C54.8111 15.4383 55.0623 15.116 55.404 14.9203L69.8763 6.65039C70.221 6.45995 70.6268 6.41276 71.0061 6.51894C71.3853 6.62513 71.7076 6.87617 71.9033 7.21793C72.0902 7.56134 72.1377 7.96359 72.0358 8.34107C71.9338 8.71855 71.6904 9.04222 71.356 9.24487L56.8634 17.5148C56.6493 17.6447 56.4043 17.7146 56.154 17.7175Z" fill="#130135"/>
<path d="M249.97 127.071L49.3029 12.387C38.3372 6.06292 29.439 12.7923 29.439 27.4065V71.9992C29.439 86.6337 38.3372 103.619 49.3029 109.964L249.97 224.628C260.956 230.972 269.834 224.243 269.834 209.628V165.036C269.935 150.401 260.956 133.415 249.97 127.071Z" fill="white"/>
<path d="M257.774 228.6C254.717 228.515 251.737 227.62 249.139 226.006L48.4721 111.342C37.101 104.774 27.8379 87.1401 27.8379 72.0596V27.467C27.8379 15.9742 33.1485 8.55566 41.3373 8.55566C44.3977 8.64243 47.3819 9.52998 49.9923 11.1299L250.558 125.814C261.949 132.381 271.192 149.995 271.192 165.096V209.689C271.408 214.504 270.15 219.27 267.584 223.35C266.499 224.957 265.039 226.275 263.329 227.19C261.62 228.105 259.713 228.589 257.774 228.6ZM41.4994 11.5353C35.1551 11.5353 31.0405 17.7579 31.0405 27.4062V71.9988C31.0405 86.1874 39.6144 102.565 50.1545 108.646L250.72 223.31C252.865 224.654 255.325 225.409 257.855 225.499C259.328 225.494 260.777 225.12 262.069 224.412C263.361 223.704 264.456 222.684 265.253 221.445C267.455 217.881 268.523 213.731 268.314 209.547V164.954C268.314 150.766 259.76 134.388 249.22 128.307L48.5532 13.623C46.4206 12.332 43.9911 11.6129 41.4994 11.5353Z" fill="#130135"/>
<path d="M54.3501 41.9194V59.8781L244.457 167.65V149.671L54.3501 41.9194Z" fill="#E5FE58"/>
<path d="M244.477 169.171C244.213 169.175 243.953 169.105 243.727 168.968L53.6003 61.2159C53.3671 61.0836 53.1731 60.8921 53.0379 60.6608C52.9026 60.4294 52.8309 60.1663 52.8301 59.8983V41.9194C52.8309 41.6537 52.9003 41.3928 53.0317 41.162C53.1631 40.9311 53.352 40.7382 53.58 40.6019C53.8124 40.4723 54.0741 40.4043 54.3401 40.4043C54.6062 40.4043 54.8679 40.4723 55.1002 40.6019L245.227 148.354C245.46 148.486 245.654 148.678 245.789 148.909C245.925 149.14 245.996 149.403 245.997 149.671V167.65C246.001 167.919 245.931 168.184 245.795 168.416C245.659 168.648 245.463 168.839 245.227 168.968C245.001 169.105 244.741 169.175 244.477 169.171ZM55.8705 59.0065L242.957 165.056V150.563L55.8705 44.5341V59.0065Z" fill="#130135"/>
<path d="M54.3501 90.1401L244.457 197.892V179.913L54.3501 72.1611V90.1401Z" fill="#E5FE58"/>
<path d="M244.477 199.433C244.214 199.428 243.957 199.358 243.727 199.23L53.6003 91.4781C53.3682 91.3396 53.1757 91.1438 53.0408 90.9096C52.906 90.6754 52.8334 90.4106 52.8301 90.1403V72.1614C52.8396 71.9023 52.9153 71.65 53.0499 71.4285C53.1844 71.2069 53.3734 71.0233 53.5988 70.8954C53.8243 70.7674 54.0787 70.6992 54.338 70.6973C54.5972 70.6954 54.8526 70.7598 55.08 70.8844L245.207 178.636C245.439 178.775 245.631 178.971 245.766 179.205C245.901 179.439 245.974 179.704 245.977 179.974V197.953C245.974 198.221 245.902 198.483 245.767 198.714C245.632 198.945 245.439 199.137 245.207 199.271C244.98 199.382 244.73 199.437 244.477 199.433ZM55.8705 89.2688L242.957 195.298V180.805L55.8705 74.7762V89.2688Z" fill="#130135"/>
<path d="M139.279 299.077L136.36 353.987L154.096 344.359L178.683 321.556L139.279 299.077Z" fill="#E5FE58"/>
<path d="M135.57 355.284C135.339 355.144 135.151 354.944 135.026 354.704C134.901 354.465 134.843 354.196 134.86 353.926L137.759 299.016C137.774 298.757 137.855 298.506 137.993 298.287C138.131 298.067 138.322 297.886 138.549 297.76C138.774 297.63 139.03 297.562 139.289 297.562C139.549 297.562 139.804 297.63 140.029 297.76L179.433 320.198C179.643 320.317 179.822 320.483 179.955 320.684C180.089 320.885 180.174 321.114 180.203 321.353C180.227 321.592 180.196 321.834 180.112 322.059C180.027 322.284 179.892 322.486 179.717 322.651L155.15 345.454C155.05 345.539 154.942 345.614 154.826 345.677L137.09 355.305C136.873 355.424 136.629 355.486 136.381 355.487C136.096 355.5 135.815 355.429 135.57 355.284ZM176.109 321.86L140.657 301.591L138.022 351.332L153.184 343.082L176.109 321.86Z" fill="#130135"/>
<path d="M272.611 384.492L131.354 303.192C120.388 296.868 111.49 279.862 111.49 265.248V220.655C111.49 213.236 104.233 213.095 107.942 210.399C108.226 210.196 122.84 201.804 123.165 201.622C126.651 199.595 131.273 199.838 136.117 202.696L277.374 283.977C288.34 290.321 297.238 307.307 297.238 321.941V366.534C297.238 374.52 294.583 380.155 290.387 382.587L275.327 391.384C271.962 393.168 277.395 387.249 272.611 384.492Z" fill="#E5FE58"/>
<path d="M272.996 392.56C272.762 392.168 272.628 391.725 272.603 391.27C272.578 390.814 272.664 390.36 272.854 389.945C273.3 388.121 273.482 386.742 271.861 385.891L130.604 304.59C119.232 298.023 109.969 280.409 109.969 265.329V220.736C109.998 219.568 109.752 218.41 109.252 217.354C108.753 216.298 108.012 215.374 107.091 214.655C106.595 214.309 106.183 213.856 105.885 213.33C105.587 212.804 105.41 212.218 105.368 211.615C105.449 211.107 105.642 210.623 105.933 210.199C106.224 209.775 106.606 209.42 107.051 209.162C107.456 208.858 122.273 200.365 122.415 200.284C126.469 197.953 131.637 198.257 136.887 201.358L278.144 282.639C289.516 289.206 298.758 306.84 298.758 321.921V366.513C298.758 374.763 295.982 381.087 291.137 383.884L290.752 384.107L276.016 392.742C275.522 393.032 274.966 393.199 274.395 393.229C274.126 393.228 273.862 393.168 273.62 393.052C273.378 392.936 273.165 392.768 272.996 392.56ZM123.996 202.879C123.185 203.345 109.503 211.209 108.915 211.574L108.652 211.777C108.814 211.98 109.077 212.223 109.28 212.426C110.478 213.409 111.442 214.646 112.101 216.049C112.761 217.452 113.099 218.984 113.091 220.533V265.126C113.091 279.315 121.665 295.672 132.205 301.753L273.462 383.053C274.521 383.627 275.361 384.534 275.852 385.633C276.343 386.732 276.458 387.963 276.178 389.134L289.313 381.472L289.698 381.229C293.569 378.999 295.779 373.608 295.779 366.493V321.901C295.779 307.712 287.205 291.334 276.685 285.253L135.428 203.973C133.285 202.626 130.823 201.871 128.293 201.784C126.79 201.772 125.31 202.149 123.996 202.879Z" fill="#130135"/>
<path d="M262.679 292.51L121.422 211.23C110.456 204.885 101.558 211.615 101.558 226.249V270.842C101.558 285.476 110.456 302.462 121.422 308.806L136.239 317.36V354.088L160.825 331.285L262.679 390.066C273.645 396.411 282.543 389.681 282.543 375.067V330.474C282.543 315.84 273.645 298.854 262.679 292.51Z" fill="white"/>
<path d="M261.929 391.444L161.028 333.21L137.272 355.243C137.055 355.444 136.784 355.578 136.493 355.627C136.201 355.677 135.901 355.64 135.63 355.522C135.359 355.404 135.128 355.209 134.966 354.961C134.804 354.714 134.718 354.424 134.718 354.128V318.272L120.651 310.164C109.28 303.597 100.037 285.983 100.037 270.882V226.289C100.037 214.797 105.327 207.358 113.537 207.358C116.594 207.443 119.574 208.338 122.171 209.952L263.449 291.233C274.82 297.8 284.063 315.414 284.063 330.515V375.107C284.063 386.6 278.773 394.019 270.563 394.019C267.508 393.94 264.528 393.052 261.929 391.444ZM103.078 226.249V270.842C103.078 285.03 111.651 301.408 122.171 307.489L137.009 316.042C137.239 316.176 137.43 316.368 137.562 316.599C137.694 316.831 137.762 317.093 137.758 317.36V350.602L159.791 330.17C160.03 329.954 160.331 329.818 160.651 329.782C160.97 329.746 161.294 329.811 161.575 329.967L263.449 388.749C265.583 390.098 268.039 390.854 270.563 390.938C276.928 390.938 281.022 384.695 281.022 375.067V330.474C281.022 316.286 272.449 299.908 261.929 293.827L120.651 212.547C118.517 211.197 116.061 210.441 113.537 210.358C107.172 210.358 103.078 216.601 103.078 226.249Z" fill="#130135"/>
<path d="M209.229 287.665L129.752 242.282V247.086L209.229 292.469V287.665Z" fill="#130135"/>
<path d="M162.102 270.437L129.752 252.255V257.059L162.102 275.24V270.437Z" fill="#130135"/>
<path d="M166.825 273.173V277.977L230.552 314.806V310.002L166.825 273.173Z" fill="#130135"/>
<path d="M129.752 285.74L256.152 358.264V339.271L129.752 266.748V285.74Z" fill="#E5FE58"/>
<path d="M255.402 359.602L129.002 287.078C128.773 286.941 128.582 286.749 128.448 286.518C128.313 286.288 128.239 286.027 128.232 285.76V266.768C128.233 266.5 128.305 266.237 128.44 266.005C128.575 265.774 128.769 265.583 129.002 265.45C129.231 265.311 129.494 265.237 129.762 265.237C130.03 265.237 130.293 265.311 130.522 265.45L256.922 337.974C257.153 338.107 257.344 338.3 257.476 338.531C257.608 338.763 257.676 339.025 257.672 339.292V358.284C257.67 358.549 257.599 358.81 257.468 359.04C257.337 359.271 257.149 359.464 256.922 359.602C256.691 359.735 256.429 359.805 256.162 359.805C255.895 359.805 255.633 359.735 255.402 359.602ZM131.272 269.383V284.868L254.632 355.649V340.163L131.272 269.383Z" fill="#130135"/>
<path d="M282.543 377.054L296.732 368.946L282.543 377.054Z" fill="white"/>
<path d="M282.563 378.574C282.827 378.573 283.085 378.503 283.313 378.371L297.502 370.263C297.844 370.068 298.095 369.745 298.201 369.366C298.307 368.987 298.26 368.581 298.069 368.236C297.87 367.899 297.548 367.651 297.17 367.545C296.792 367.439 296.388 367.484 296.042 367.669L281.854 375.777C281.52 375.979 281.275 376.302 281.17 376.678C281.064 377.054 281.106 377.457 281.286 377.803C281.415 378.031 281.6 378.221 281.824 378.356C282.047 378.491 282.302 378.566 282.563 378.574Z" fill="#130135"/>
<path d="M281.286 318.535L295.475 310.428L281.286 318.535Z" fill="white"/>
<path d="M281.286 320.056C281.55 320.058 281.809 319.988 282.036 319.853L296.225 311.746C296.563 311.546 296.81 311.224 296.916 310.846C297.022 310.468 296.978 310.064 296.792 309.719C296.59 309.385 296.267 309.14 295.891 309.035C295.515 308.929 295.112 308.971 294.765 309.151L280.577 317.259C280.235 317.454 279.984 317.777 279.878 318.156C279.772 318.535 279.819 318.941 280.009 319.286C280.139 319.512 280.325 319.701 280.548 319.836C280.772 319.97 281.026 320.046 281.286 320.056Z" fill="#130135"/>
<path d="M267.341 295.469L281.833 287.199L267.341 295.469Z" fill="white"/>
<path d="M267.361 296.989C267.625 296.989 267.883 296.919 268.111 296.787L282.584 288.517C282.773 288.427 282.941 288.299 283.078 288.141C283.216 287.984 283.319 287.799 283.382 287.6C283.445 287.4 283.466 287.19 283.443 286.982C283.421 286.774 283.356 286.573 283.253 286.391C283.149 286.209 283.01 286.051 282.842 285.926C282.675 285.8 282.483 285.711 282.279 285.663C282.076 285.616 281.865 285.61 281.659 285.648C281.453 285.685 281.257 285.765 281.084 285.882L266.591 294.152C266.257 294.354 266.013 294.677 265.907 295.053C265.802 295.429 265.843 295.832 266.024 296.178C266.152 296.422 266.345 296.626 266.58 296.769C266.816 296.912 267.086 296.988 267.361 296.989Z" fill="#130135"/>
<path d="M128.191 215.02L142.664 206.75L128.191 215.02Z" fill="white"/>
<path d="M128.191 216.54C128.455 216.54 128.713 216.47 128.941 216.337L143.414 208.068C143.732 207.854 143.958 207.527 144.045 207.154C144.133 206.78 144.077 206.387 143.887 206.054C143.697 205.72 143.388 205.471 143.022 205.356C142.656 205.241 142.26 205.268 141.914 205.433L127.421 213.702C127.13 213.87 126.903 214.129 126.774 214.44C126.646 214.75 126.624 215.094 126.712 215.418C126.8 215.742 126.993 216.028 127.261 216.231C127.528 216.434 127.855 216.543 128.191 216.54Z" fill="#130135"/>
<path d="M336.5 309.252C336.5 286.956 320.69 259.612 301.191 248.444C291.745 242.991 283.151 242.363 276.867 245.606L265.476 252.011L267.908 256.349C266.536 260.256 265.851 264.37 265.881 268.511C265.881 290.807 281.671 318.15 301.17 329.319C303.852 330.891 306.709 332.143 309.684 333.048L313.21 339.129L325.757 332.116C332.385 328.569 336.5 320.643 336.5 309.252Z" fill="#E5FE58"/>
<path d="M311.913 339.899L308.69 334.386C305.812 333.465 303.046 332.228 300.441 330.697C280.556 319.225 264.381 291.314 264.381 268.49C264.329 264.419 264.938 260.367 266.185 256.491L264.159 252.66C263.977 252.309 263.938 251.902 264.052 251.523C264.165 251.145 264.422 250.826 264.767 250.633L276.199 244.187C279.064 242.723 282.244 241.979 285.462 242.019C291.335 242.22 297.053 243.96 302.042 247.066C321.926 258.538 338.101 286.449 338.101 309.272C338.101 320.887 334.047 329.542 326.608 333.474L313.981 340.467C313.748 340.584 313.491 340.647 313.231 340.65C312.965 340.651 312.703 340.582 312.472 340.45C312.241 340.319 312.048 340.129 311.913 339.899ZM277.455 246.843L267.321 252.518L269.003 255.619C269.092 255.817 269.139 256.031 269.139 256.248C269.139 256.464 269.092 256.679 269.003 256.876C267.713 260.61 267.088 264.541 267.158 268.49C267.158 290.341 282.644 317.137 301.616 328.062C304.167 329.575 306.889 330.779 309.724 331.65C309.911 331.7 310.086 331.787 310.239 331.905C310.392 332.023 310.52 332.171 310.616 332.339L313.393 337.082L324.663 330.778C331.047 327.353 334.574 319.691 334.574 309.252C334.574 287.402 319.068 260.606 300.116 249.68C295.592 246.837 290.397 245.235 285.056 245.039C282.451 245.057 279.885 245.674 277.557 246.843H277.455Z" fill="#130135"/>
<path d="M313.757 338.847C327.461 330.836 327.327 305.108 313.457 281.382C299.587 257.656 277.234 244.917 263.53 252.928C249.827 260.939 249.961 286.667 263.831 310.393C277.701 334.119 300.053 346.858 313.757 338.847Z" fill="white"/>
<path d="M287.914 337.711C268.03 326.279 251.855 298.307 251.855 275.605C251.855 259.511 260.084 249.093 272.813 249.093C278.703 249.289 284.437 251.037 289.434 254.16C309.319 265.633 325.494 293.544 325.494 316.367C325.494 332.461 317.264 342.859 304.515 342.859C298.625 342.63 292.9 340.854 287.914 337.711ZM254.895 275.605C254.895 297.456 270.381 324.252 289.353 335.177C293.884 338.024 299.086 339.625 304.434 339.819C315.501 339.819 322.372 330.819 322.372 316.367C322.372 294.516 306.866 267.72 287.914 256.795C283.374 253.949 278.168 252.341 272.813 252.133C261.827 252.032 254.895 261.031 254.895 275.605Z" fill="#130135"/>
<path d="M280.232 251.727L292.394 244.714L280.232 251.727Z" fill="white"/>
<path d="M291.72 243.438L279.453 250.447L280.961 253.087L293.228 246.078L291.72 243.438Z" fill="#130135"/>
<path d="M320.264 294.8L332.426 287.787L320.264 294.8Z" fill="white"/>
<path d="M331.752 286.498L319.485 293.506L320.993 296.146L333.26 289.138L331.752 286.498Z" fill="#130135"/>
<path d="M323.812 310.063L335.973 303.05L323.812 310.063Z" fill="white"/>
<path d="M335.299 301.708L323.032 308.717L324.54 311.357L336.807 304.348L335.299 301.708Z" fill="#130135"/>
<path d="M324.663 317.603L336.824 310.59L324.663 317.603Z" fill="white"/>
<path d="M336.07 309.305L323.803 316.313L325.311 318.953L337.578 311.945L336.07 309.305Z" fill="#130135"/>
<path d="M298.657 305.543C296.63 303.802 294.892 301.749 293.509 299.462C292.658 298.043 292.698 296.503 293.509 296.016C294.668 295.33 295.588 294.304 296.144 293.077C297.056 293.32 298.171 293.077 298.171 291.76C298.176 290.521 297.713 289.326 296.874 288.415C296.93 285.468 296.189 282.56 294.73 279.999C293.271 277.437 291.147 275.317 288.584 273.862C282.361 270.274 280.476 273.7 280.293 278.848C279.543 278.686 278.976 279.416 278.976 280.672C279.195 282.097 279.914 283.397 281.003 284.341C281.658 286.419 282.542 288.417 283.638 290.3C284.469 291.76 284.489 293.341 283.638 293.766C282.838 294.145 281.97 294.36 281.086 294.399C280.202 294.437 279.319 294.298 278.489 293.989C275.875 293.199 273.929 294.78 273.929 298.043V303.617C273.963 304.208 274.138 304.783 274.437 305.294C274.737 305.805 275.153 306.237 275.652 306.556L301.515 321.495C302.448 322.042 303.218 321.495 303.218 320.522V314.948C303.134 313.153 302.686 311.394 301.902 309.778C301.118 308.161 300.014 306.72 298.657 305.543Z" fill="#E5FE58"/>
<path d="M300.745 322.67L274.881 307.732C274.155 307.276 273.55 306.65 273.119 305.909C272.689 305.167 272.445 304.332 272.408 303.475V297.901C272.408 294.476 274.435 292.165 277.212 292.165C277.797 292.173 278.378 292.269 278.935 292.449C280.167 292.89 281.514 292.89 282.746 292.449C282.748 291.931 282.6 291.424 282.32 290.989C281.239 289.118 280.349 287.141 279.665 285.091C278.423 283.897 277.641 282.304 277.455 280.591C277.405 280.01 277.507 279.425 277.752 278.895C277.998 278.365 278.377 277.908 278.854 277.571C279.381 271.997 282.036 270.781 284.246 270.781C286.059 270.89 287.812 271.47 289.333 272.463C292.041 274.002 294.295 276.227 295.871 278.913C297.447 281.599 298.289 284.652 298.313 287.767C299.17 288.907 299.639 290.292 299.65 291.719C299.664 292.142 299.582 292.562 299.41 292.948C299.238 293.334 298.98 293.676 298.657 293.949C298.175 294.334 297.59 294.567 296.975 294.618C296.32 295.669 295.432 296.557 294.38 297.212C294.345 297.721 294.48 298.228 294.765 298.651C296.062 300.829 297.697 302.785 299.61 304.448C301.115 305.754 302.341 307.349 303.215 309.139C304.089 310.929 304.593 312.877 304.697 314.867V320.441C304.725 320.782 304.683 321.126 304.573 321.451C304.463 321.775 304.287 322.074 304.058 322.329C303.828 322.583 303.549 322.788 303.237 322.93C302.925 323.072 302.587 323.15 302.245 323.157C301.712 323.124 301.196 322.957 300.745 322.67ZM296.691 291.496C296.649 290.75 296.364 290.038 295.88 289.469C295.732 289.335 295.613 289.173 295.529 288.992C295.446 288.811 295.4 288.615 295.394 288.415C295.46 285.724 294.793 283.065 293.465 280.723C292.137 278.381 290.197 276.444 287.854 275.118C286.791 274.399 285.564 273.96 284.286 273.841C283.739 273.841 282.057 273.841 281.854 278.848C281.853 279.069 281.804 279.287 281.709 279.487C281.615 279.687 281.477 279.863 281.306 280.003C281.095 280.182 280.833 280.289 280.557 280.307C280.557 280.307 280.557 280.49 280.557 280.611C280.778 281.592 281.311 282.474 282.077 283.125C282.28 283.322 282.433 283.565 282.523 283.834C283.138 285.807 283.974 287.704 285.016 289.489C285.386 290.066 285.637 290.711 285.755 291.386C285.874 292.061 285.857 292.753 285.705 293.422C285.615 293.77 285.453 294.097 285.229 294.379C285.006 294.662 284.726 294.895 284.408 295.063C282.43 295.994 280.166 296.111 278.104 295.388C277.835 295.303 277.555 295.255 277.273 295.246C275.692 295.246 275.509 297.131 275.509 297.942V303.516C275.546 303.838 275.649 304.149 275.813 304.428C275.977 304.707 276.198 304.949 276.462 305.137L301.758 319.731V314.846C301.653 313.294 301.24 311.778 300.544 310.386C299.848 308.994 298.883 307.755 297.704 306.739C295.539 304.865 293.691 302.655 292.232 300.192C291.509 299.062 291.248 297.698 291.502 296.381C291.681 295.654 292.14 295.028 292.779 294.638C293.674 294.11 294.382 293.316 294.806 292.368C294.974 292.097 295.211 291.876 295.492 291.726C295.773 291.577 296.089 291.504 296.407 291.516L296.691 291.496Z" fill="#130135"/>
<path d="M248.47 257.363L249.22 256.005C250.57 253.491 252.3 251.2 254.348 249.214C254.633 248.929 254.793 248.543 254.793 248.14C254.793 247.737 254.633 247.351 254.348 247.066C254.063 246.781 253.677 246.621 253.274 246.621C252.871 246.621 252.485 246.781 252.2 247.066C250.303 248.877 248.641 250.92 247.254 253.147L207.1 230.08C206.927 229.98 206.736 229.915 206.538 229.889C206.34 229.863 206.139 229.877 205.946 229.928C205.753 229.98 205.572 230.069 205.414 230.191C205.256 230.313 205.123 230.464 205.023 230.637C204.923 230.81 204.858 231.001 204.832 231.199C204.806 231.397 204.82 231.599 204.871 231.792C204.923 231.985 205.012 232.165 205.134 232.324C205.256 232.482 205.407 232.615 205.58 232.715L248.47 257.363Z" fill="#130135"/>
<path d="M198.993 228.6C199.261 228.601 199.525 228.531 199.757 228.395C199.988 228.26 200.18 228.065 200.31 227.83C200.495 227.484 200.54 227.08 200.434 226.702C200.328 226.325 200.08 226.002 199.743 225.803L184.115 216.824C183.771 216.637 183.369 216.589 182.992 216.691C182.614 216.793 182.291 217.037 182.088 217.371C181.908 217.718 181.866 218.12 181.972 218.496C182.077 218.873 182.321 219.195 182.656 219.398L198.222 228.357C198.453 228.506 198.719 228.59 198.993 228.6Z" fill="#130135"/>
<path d="M95.2457 349.195C94.8425 349.195 94.4558 349.035 94.1707 348.75C93.8856 348.465 93.7255 348.078 93.7255 347.675C93.4734 337.884 89.9964 328.451 83.834 320.839C83.5808 320.529 83.4601 320.131 83.4981 319.733C83.536 319.334 83.7296 318.967 84.0367 318.71C84.35 318.456 84.7507 318.335 85.1524 318.373C85.5542 318.41 85.9251 318.604 86.1853 318.913C92.8232 327.049 96.5414 337.177 96.7456 347.675C96.7405 348.073 96.5815 348.454 96.3018 348.737C96.0222 349.021 95.6437 349.185 95.2457 349.195Z" fill="#130135"/>
<path d="M76.2737 313.764C76.0018 313.759 75.7361 313.682 75.5035 313.541L63.5648 306.548C63.2304 306.346 62.987 306.022 62.8851 305.645C62.7832 305.267 62.8306 304.865 63.0176 304.521C63.2199 304.187 63.5452 303.944 63.9238 303.846C64.3025 303.747 64.7047 303.801 65.0445 303.994L76.9223 310.987C77.2567 311.19 77.5002 311.514 77.6021 311.891C77.704 312.269 77.6565 312.671 77.4696 313.014C77.3432 313.225 77.1691 313.402 76.9613 313.532C76.7535 313.663 76.5179 313.742 76.2737 313.764Z" fill="#130135"/>
<path d="M71.1256 320.96L15.5064 288.164C7.78374 283.705 1.52051 288.448 1.52051 298.725V314.454C1.52051 324.751 7.78374 336.75 15.5064 341.169L34.8028 352.945L60.6666 392.45V367.864L71.1256 373.944C78.8482 378.404 85.0911 373.681 85.0911 363.384V347.655C85.0911 337.378 78.8482 325.419 71.1256 320.96Z" fill="white"/>
<path d="M60.6663 393.93C60.4125 393.932 60.1622 393.871 59.9389 393.75C59.7155 393.629 59.5264 393.454 59.3893 393.241L33.7282 354.019L14.7155 342.425C6.60778 337.743 0 325.176 0 314.413V298.664C0 290.313 3.91194 284.901 9.95221 284.901C12.1824 284.966 14.3563 285.616 16.256 286.786L71.8955 319.602C80.0032 324.284 86.6313 336.851 86.6313 347.614V363.343C86.7803 366.825 85.8608 370.27 83.9963 373.215C83.189 374.413 82.0994 375.395 80.8234 376.074C79.5475 376.752 78.1243 377.107 76.6791 377.106C74.4414 377.049 72.2591 376.398 70.355 375.221L62.2473 370.458V392.389C62.244 392.717 62.1361 393.036 61.9392 393.299C61.7423 393.561 61.4668 393.754 61.1527 393.849L60.6663 393.93ZM9.99279 287.961C5.79703 287.961 3.08092 292.178 3.08092 298.684V314.413C3.08092 324.203 9.01983 335.595 16.2965 339.811L35.6336 351.607C35.8328 351.719 36.0003 351.879 36.12 352.074L59.1866 387.302V367.823C59.1833 367.556 59.251 367.294 59.3828 367.062C59.5147 366.831 59.7058 366.639 59.9365 366.505C60.1726 366.376 60.4375 366.308 60.7068 366.308C60.976 366.308 61.241 366.376 61.477 366.505L71.936 372.586C75.848 374.856 79.4154 374.451 81.5437 371.451C83.0251 369.016 83.7319 366.189 83.5706 363.343V347.614C83.5706 337.824 77.6317 326.433 70.3347 322.217L14.7155 289.421C13.2774 288.544 11.636 288.055 9.95221 288.002L9.99279 287.961Z" fill="#130135"/>
<path d="M31.134 315.204C30.8638 315.206 30.5979 315.136 30.3638 315.001L16.54 306.893C16.1933 306.686 15.943 306.35 15.8442 305.959C15.7453 305.567 15.8061 305.152 16.0131 304.806C16.2201 304.459 16.5563 304.209 16.9478 304.11C17.3393 304.011 17.7541 304.072 18.1008 304.279L31.9043 312.386C32.1855 312.558 32.4033 312.817 32.5249 313.123C32.6465 313.429 32.6652 313.767 32.5783 314.085C32.4914 314.403 32.3036 314.684 32.0431 314.885C31.7826 315.087 31.4635 315.199 31.134 315.204Z" fill="#130135"/>
<path d="M69.3415 337.763C69.0713 337.765 68.8054 337.695 68.5712 337.561L37.6401 319.318C37.2907 319.114 37.0368 318.779 36.9342 318.388C36.8315 317.996 36.8886 317.58 37.0929 317.23C37.2972 316.881 37.6319 316.627 38.0234 316.524C38.4149 316.422 38.8312 316.479 39.1806 316.683L70.132 334.926C70.4146 335.098 70.6332 335.359 70.7543 335.667C70.8755 335.975 70.8926 336.315 70.8031 336.634C70.7136 336.952 70.5224 337.233 70.2586 337.434C69.9948 337.634 69.6727 337.743 69.3415 337.743V337.763Z" fill="#130135"/>
<path d="M49.376 336.061C49.1058 336.063 48.8399 335.993 48.6057 335.858L16.499 316.906C16.1523 316.699 15.902 316.363 15.8032 315.971C15.7043 315.58 15.7651 315.165 15.972 314.818C16.179 314.472 16.5152 314.221 16.9067 314.122C17.2983 314.024 17.713 314.084 18.0598 314.291L50.0449 333.162C50.3261 333.334 50.544 333.592 50.6655 333.899C50.7871 334.205 50.8059 334.542 50.719 334.86C50.6321 335.178 50.4442 335.459 50.1837 335.661C49.9232 335.863 49.6042 335.975 49.2747 335.98L49.376 336.061Z" fill="#130135"/>
<path d="M69.3417 347.898C69.0715 347.9 68.8056 347.83 68.5714 347.695L54.2612 339.203C53.9229 339.004 53.6761 338.68 53.5738 338.301C53.4715 337.922 53.5219 337.518 53.714 337.176C53.9166 336.841 54.2403 336.598 54.6178 336.496C54.9953 336.394 55.3975 336.441 55.7409 336.628L70.0713 345.081C70.354 345.253 70.5725 345.514 70.6937 345.822C70.8148 346.13 70.8319 346.47 70.7424 346.789C70.6529 347.108 70.4618 347.389 70.198 347.589C69.9341 347.789 69.6121 347.898 69.2809 347.898H69.3417Z" fill="#130135"/>
<path d="M69.3414 358.033C69.0712 358.035 68.8053 357.965 68.5711 357.83L16.499 327.041C16.1523 326.834 15.902 326.498 15.8032 326.106C15.7043 325.715 15.7651 325.3 15.972 324.953C16.179 324.606 16.5152 324.356 16.9067 324.257C17.2983 324.158 17.713 324.219 18.0598 324.426L70.1318 355.134C70.4145 355.307 70.633 355.567 70.7542 355.875C70.8753 356.184 70.8925 356.523 70.803 356.842C70.7135 357.161 70.5223 357.442 70.2584 357.642C69.9946 357.843 69.6726 357.951 69.3414 357.952V358.033Z" fill="#130135"/>
</svg>
