<?xml version="1.0" encoding="UTF-8" standalone="no"?><svg width="16" height="16" viewBox="0 0 16 16" fill="none" xmlns="http://www.w3.org/2000/svg">
<g clip-path="url(#clip0_506_41)">
<path d="M5.03344 14.5005C11.0697 14.5005 14.3722 9.49829 14.3722 5.16173C14.3722 5.0211 14.3691 4.87735 14.3628 4.73673C15.0052 4.27213 15.5597 3.69666 16 3.03735C15.4017 3.30356 14.7664 3.47741 14.1159 3.55298C14.8009 3.14243 15.3137 2.49747 15.5594 1.73767C14.915 2.11953 14.2104 2.3889 13.4756 2.53423C12.9806 2.0082 12.326 1.6599 11.6131 1.54319C10.9003 1.42648 10.1688 1.54786 9.53183 1.88855C8.89486 2.22925 8.38787 2.77029 8.08923 3.42803C7.7906 4.08577 7.71695 4.82357 7.87969 5.52735C6.575 5.46188 5.29862 5.12296 4.13332 4.53255C2.96802 3.94215 1.9398 3.11345 1.11531 2.10017C0.696266 2.82265 0.568038 3.67759 0.756687 4.49122C0.945337 5.30485 1.43671 6.01612 2.13094 6.48048C1.60975 6.46393 1.09998 6.32361 0.64375 6.0711V6.11173C0.643283 6.86992 0.905399 7.60488 1.38554 8.19167C1.86568 8.77846 2.53422 9.18086 3.2775 9.33048C2.7947 9.46257 2.28799 9.48182 1.79656 9.38673C2.0063 10.0388 2.41438 10.6091 2.96385 11.018C3.51331 11.427 4.17675 11.6542 4.86156 11.668C3.69895 12.5812 2.26278 13.0766 0.784375 13.0742C0.522191 13.0738 0.260266 13.0578 0 13.0261C1.5019 13.9897 3.24902 14.5014 5.03344 14.5005Z" fill="#27272D"/>
</g>
<defs>
<clipPath id="clip0_506_41">
<rect width="16" height="16" fill="white"/>
</clipPath>
</defs>
</svg>
